<svg width="30" height="32" viewBox="0 0 30 32" fill="none" xmlns="http://www.w3.org/2000/svg">
<g id="fa:close" clip-path="url(#clip0_77_86)">
<path id="Vector" d="M29.3092 26.7456C29.3092 27.396 29.0789 27.9489 28.6184 28.4042L25.2632 31.7212C24.8026 32.1765 24.2434 32.4042 23.5855 32.4042C22.9276 32.4042 22.3684 32.1765 21.9079 31.7212L14.6546 24.5505L7.40132 31.7212C6.94079 32.1765 6.38158 32.4042 5.72368 32.4042C5.06579 32.4042 4.50658 32.1765 4.04605 31.7212L0.690789 28.4042C0.230263 27.9489 0 27.396 0 26.7456C0 26.0952 0.230263 25.5424 0.690789 25.0871L7.94408 17.9164L0.690789 10.7456C0.230263 10.2903 0 9.7375 0 9.0871C0 8.43669 0.230263 7.88384 0.690789 7.42856L4.04605 4.11149C4.50658 3.6562 5.06579 3.42856 5.72368 3.42856C6.38158 3.42856 6.94079 3.6562 7.40132 4.11149L14.6546 11.2822L21.9079 4.11149C22.3684 3.6562 22.9276 3.42856 23.5855 3.42856C24.2434 3.42856 24.8026 3.6562 25.2632 4.11149L28.6184 7.42856C29.0789 7.88384 29.3092 8.43669 29.3092 9.0871C29.3092 9.7375 29.0789 10.2903 28.6184 10.7456L21.3651 17.9164L28.6184 25.0871C29.0789 25.5424 29.3092 26.0952 29.3092 26.7456Z" fill="white"/>
</g>
<defs>
<clipPath id="clip0_77_86">
<rect width="30" height="32" fill="white"/>
</clipPath>
</defs>
</svg>
