<svg width="59" height="59" viewBox="0 0 59 59" fill="none" xmlns="http://www.w3.org/2000/svg">
<g id="mingcute:menu-fill" clip-path="url(#clip0_67_284)">
<g id="Group">
<path id="Vector" d="M43.0208 43.9167C43.9678 43.9171 44.8783 44.2819 45.5637 44.9354C46.2491 45.5889 46.6567 46.4811 46.7022 47.427C46.7478 48.3729 46.4276 49.3 45.8082 50.0163C45.1887 50.7326 44.3174 51.1831 43.3748 51.2745L43.0208 51.2917H3.6875C2.74051 51.2912 1.83 50.9264 1.14463 50.2729C0.459269 49.6194 0.0515954 48.7273 0.00608619 47.7814C-0.0394231 46.8355 0.280721 45.9083 0.900181 45.1921C1.51964 44.4758 2.39093 44.0253 3.3335 43.9339L3.6875 43.9167H43.0208ZM43.0208 26.7083C43.9988 26.7083 44.9367 27.0968 45.6283 27.7884C46.3198 28.4799 46.7083 29.4178 46.7083 30.3958C46.7083 31.3738 46.3198 32.3118 45.6283 33.0033C44.9367 33.6948 43.9988 34.0833 43.0208 34.0833H3.6875C2.70951 34.0833 1.77158 33.6948 1.08004 33.0033C0.388503 32.3118 0 31.3738 0 30.3958C0 29.4178 0.388503 28.4799 1.08004 27.7884C1.77158 27.0968 2.70951 26.7083 3.6875 26.7083H43.0208ZM43.0208 9.5C43.9988 9.5 44.9367 9.8885 45.6283 10.58C46.3198 11.2716 46.7083 12.2095 46.7083 13.1875C46.7083 14.1655 46.3198 15.1034 45.6283 15.795C44.9367 16.4865 43.9988 16.875 43.0208 16.875H3.6875C2.70951 16.875 1.77158 16.4865 1.08004 15.795C0.388503 15.1034 0 14.1655 0 13.1875C0 12.2095 0.388503 11.2716 1.08004 10.58C1.77158 9.8885 2.70951 9.5 3.6875 9.5H43.0208Z" fill="white"/>
</g>
</g>
<defs>
<clipPath id="clip0_67_284">
<rect width="59" height="59" fill="white"/>
</clipPath>
</defs>
</svg>
